<svg fill="#D1D1D1" height="24px" width="24px" version="1.1" xmlns="http://www.w3.org/2000/svg" xmlns:xlink="http://www.w3.org/1999/xlink" 
	 viewBox="0 0 512 512" xml:space="preserve">
<g>
	<g>
		<path d="M482.579,46.196h-90.632c-15.945,0-28.158,12.594-28.158,28.539v61.927h-62.474c-15.945,0-27.993,12.761-27.993,28.707
			v61.76h-62.639c-15.945,0-29.752,12.927-29.752,28.872v61.594h-32.722V256c0-15.945-12.213-28.872-28.158-28.872H29.421
			C13.474,227.128,0,240.055,0,256v90.632c0,15.945,13.474,28.707,29.421,28.707h61.045v61.927
			c0,15.945,13.639,28.539,29.586,28.539h90.632c15.945,0,27.993-12.594,27.993-28.539v-61.927h62.639
			c15.945,0,29.752-12.762,29.752-28.707v-61.76h60.88c15.945,0,29.586-12.927,29.586-28.872v-61.594h61.045
			c15.947,0,29.421-13.093,29.421-29.038V74.735C512,58.79,498.526,46.196,482.579,46.196z M90.466,317.594H57.744v-32.722h32.722
			V317.594z M180.932,408.06h-32.722v-32.722h32.722V408.06z M273.323,317.594h-34.647v-32.722h34.647V317.594z M363.789,227.128
			h-32.722v-32.722h32.722V227.128z M454.256,136.662h-32.722V103.94h32.722V136.662z"/>
	</g>
</g>
</svg>