<svg width="21" height="20" viewBox="0 0 21 20" fill="none" xmlns="http://www.w3.org/2000/svg">
	<path fill-rule="evenodd" clip-rule="evenodd"
		d="M16.2991 15.6187H4.70305C4.43827 15.6189 4.17656 15.562 3.93581 15.4518C3.69507 15.3416 3.48096 15.1807 3.30815 14.9801C3.13533 14.7795 3.00788 14.5439 2.93452 14.2895C2.86115 14.0351 2.84359 13.7678 2.88305 13.506C3.12519 11.9023 3.92665 10.4358 5.14572 9.366V6.35533C5.14572 4.93501 5.70994 3.57286 6.71426 2.56854C7.71858 1.56422 9.08073 1 10.501 1C11.9214 1 13.2835 1.56422 14.2878 2.56854C15.2922 3.57286 15.8564 4.93501 15.8564 6.35533V9.36533C17.0763 10.4351 17.8781 11.9022 18.1197 13.5067C18.1591 13.7684 18.1414 14.0356 18.068 14.2899C17.9946 14.5443 17.8671 14.7798 17.6943 14.9803C17.5215 15.1808 17.3075 15.3417 17.0668 15.4518C16.8261 15.562 16.5638 15.6189 16.2991 15.6187Z"
		fill="white" />
	<path
		d="M10.5 18.9999C11.7175 18.9999 12.7318 18.2456 12.9545 17.2467C13.0046 17.0221 12.8134 16.8333 12.5833 16.8333H8.41664C8.18652 16.8333 7.99536 17.0221 8.04543 17.2467C8.26812 18.2456 9.2824 18.9999 10.5 18.9999Z"
		fill="white" />
</svg>