<svg width="21" height="20" viewBox="0 0 21 20" fill="none" xmlns="http://www.w3.org/2000/svg">
	<path
		d="M5.47473 9.50128H7.7664V5.52369C7.7664 4.23038 8.89339 3.00822 10.5028 3.00822C11.9561 3.00822 13.016 4.0048 13.208 5.15043C13.2221 5.23486 13.2931 5.29989 13.3788 5.29989H15.3506C15.4458 5.29989 15.522 5.22003 15.5138 5.1252C15.3019 2.65672 13.1394 0.716553 10.5028 0.716553C7.72587 0.716553 5.47473 2.86878 5.47473 5.52369V9.50128Z"
		fill="white" />
	<path fill-rule="evenodd" clip-rule="evenodd"
		d="M5.275 8.44849C4.01855 8.44849 3 9.46704 3 10.7235V17.0068C3 18.2633 4.01855 19.2818 5.275 19.2818H15.725C16.9814 19.2818 18 18.2633 18 17.0068V10.7235C18 9.46704 16.9814 8.44849 15.725 8.44849H5.275ZM12.4492 12.7188C12.4492 13.5109 12.0164 14.1974 11.3842 14.5348V16.0932C11.3842 16.5835 10.9867 16.9809 10.4965 16.9809C10.0062 16.9809 9.60881 16.5835 9.60881 16.0932V14.535C8.97639 14.1977 8.54342 13.511 8.54342 12.7188C8.54342 11.593 9.41776 10.6804 10.4963 10.6804C11.5749 10.6804 12.4492 11.593 12.4492 12.7188Z"
		fill="white" />
</svg>